<svg xmlns="http://www.w3.org/2000/svg" viewBox="0 0 512 512" width="512" height="512">
  <rect width="512" height="512" rx="76" fill="#7c3aed"/>
  <g transform="translate(160 160) scale(10.833333333333334)">
    <path fill="white" d="M12 3C10.22 3 8.47 3.53 6.99 4.53C5.51 5.53 4.35 6.95 3.68 8.61C3 10.27 2.81 12.1 3.15 13.87C3.5 15.64 4.35 17.27 5.61 18.54C6.88 19.8 8.51 20.65 10.28 21C12.05 21.35 13.88 21.16 15.54 20.49C17.2 19.82 18.62 18.66 19.62 17.18C20.62 15.7 21.15 13.95 21.15 12.15M12 3L13.09 8.26L19 6L14.74 10.91L21 12L14.74 13.09L19 18L13.09 15.74L12 22L10.91 15.74L5 18L9.26 13.09L3 12L9.26 10.91L5 6L10.91 8.26L12 3Z" stroke="white" stroke-width="0.3" stroke-linecap="round" stroke-linejoin="round"/>
  </g>
</svg>